# xmcd CD database file
#
# Track frame offsets:
#	150
#	13244
#	28677
#	43628
#	56254
#	71151
#	81631
#	95177
#	109011
#	122211
#	135703
#	148413
#	160586
#	172898
#	186965
#	199401
#	214169
#	225207
#	238713
#	251807
#
# Disc length: 3513 seconds
#
# Revision: 0
# Processed by: cddbd v1.5.2PL0 Copyright (c) Steve Scherf et al.
# Submitted via: CDex 1.70beta2
#
DISCID=2b0db714
DTITLE=Various Artist - Jazz Roads CD147 - Swing - Django Reinhardt Vol.2 (1937)
DYEAR=2006
DGENRE=Jazz
TTITLE0=Le Quintette Du Hot Club De France - Runnin' Wild
TTITLE1=Le Quintette Du Hot Club De France - Chicago
TTITLE2=Le Quintette Du Hot Club De France - Liebestraum No. 3
TTITLE3=Le Quintette Du Hot Club De France - Miss Annabelle Lee
TTITLE4=Le Quintette Du Hot Club De France - A Little Love, A Little Kiss
TTITLE5=Le Quintette Du Hot Club De France - Mystery Pacific
TTITLE6=Le Quintette Du Hot Club De France - In A Sentimental Mood
TTITLE7=Le Quintette Du Hot Club De France - The Sheik Of Araby
TTITLE8=Django Reinhardt - Improvisation
TTITLE9=Django Reinhardt - Parfum
TTITLE10=Stephane Grappelli - Alabammy Bound
TTITLE11=Django Reinhardt  - St. Louis Blues
TTITLE12=Django Reinhardt  - Bouncin' Around
TTITLE13=Eddie South - Eddie's Blues
TTITLE14=Eddie South - Sweet Georgia Brown
TTITLE15=Trio De Violons - Lady Be Good
TTITLE16=Eddie South and Stephane Grappelli - Dinah
TTITLE17=Eddie South and Stephane Grappelli - Daphne
TTITLE18=Michel Warlop and Stephane Grappelli - You Took Advantage Of Me
TTITLE19=Stephane Grappelli - I've Found A New Baby
EXTD=YEAR: 2006
EXTT0=
EXTT1=
EXTT2=
EXTT3=
EXTT4=
EXTT5=
EXTT6=
EXTT7=
EXTT8=
EXTT9=
EXTT10=
EXTT11=
EXTT12=
EXTT13=
EXTT14=
EXTT15=
EXTT16=
EXTT17=
EXTT18=
EXTT19=
PLAYORDER=
